{"title":"The Artist (2011)[BDrip m-1080p x264 mkv][ac3 (sub spa-fre)]","uid":7109141,"size":2777025843,"categoryP":"video","categoryS":"hd___movies","magnet":"?xt=urn:btih:676e14a2cf714a5dabe1e6c2e2724d24588613cf&amp;dn=The+Artist+%282011%29%5BBDrip+m-1080p+x264+mkv%5D%5Bac3+%28sub+spa-fre%29%5D&amp;tr=udp%3A%2F%2Ftracker.openbittorrent.com%3A80&amp;tr=udp%3A%2F%2Fopen.demonii.com%3A1337&amp;tr=udp%3A%2F%2Ftracker.coppersurfer.tk%3A6969&amp;tr=udp%3A%2F%2Fexodus.desync.com%3A6969","seeders":1,"leechers":0,"uploader":null,"files":-1,"time":1331975380,"description":" General\n Unique ID : 177399823218443127901396929275841305264 (0x8575F69215169BA4B16AF65546CD5AB0)\n Complete name : The Artist (2011)[BDrip m-1080p x264][Ac3 (Banda Sonora)][Comedia Cine mudo].guerrero36.mkv\n Format : Matroska\n Format version : Version 1\n File size : 2.59 GiB\n Duration : 1h 40mn\n Overall bit rate : 3 685 Kbps\n Encoded date : UTC 2012-03-12 15:22:10\n Writing application : mkvmerge v2.4.2 ('Oh My God') built on Jan 18 2009 17:30:28\n Writing library : libebml v0.7.7 + libmatroska v0.8.1\n Video\n ID : 1\n Format : AVC\n Format/Info : Advanced Video Codec\n Format profile : &lt;a class=&quot;__cf_email__&quot; href=&quot;/cdn-cgi/l/email-protection&quot; data-cfemail=&quot;4e062729260e027a607e&quot;&gt;[email&amp;#160;protected]&lt;/a&gt;&lt;script cf-hash='f9e31' type=&quot;text/javascript&quot;&gt;\n/* &lt;![CDATA[ */!function(){try{var t=&quot;currentScript&quot;in document?document.currentScript:function(){for(var t=document.getElementsByTagName(&quot;script&quot;),e=t.length;e--;)if(t[e].getAttribute(&quot;cf-hash&quot;))return t[e]}();if(t&amp;&amp;t.previousSibling){var e,r,n,i,c=t.previousSibling,a=c.getAttribute(&quot;data-cfemail&quot;);if(a){for(e=&quot;&quot;,r=parseInt(a.substr(0,2),16),n=2;a.length-n;n+=2)i=parseInt(a.substr(n,2),16)^r,e+=String.fromCharCode(i);e=document.createTextNode(e),c.parentNode.replaceChild(e,c)}}}catch(u){}}();/* ]]&gt; */&lt;/script&gt;\n Format settings, CABAC : Yes\n Format settings, ReFrames : 4 frames\n Codec ID : V_MPEG4/ISO/AVC\n Duration : 1h 40mn\n Bit rate : 3 299 Kbps\n Width : 1 424 pixels\n Height : 1 080 pixels\n Display aspect ratio : 4:3\n Frame rate : 23.976 fps\n Color space : YUV\n Chroma subsampling : 4:2:0\n Bit depth : 8 bits\n Scan type : Progressive\n Bits/(Pixel*Frame) : 0.089\n Stream size : 2.27 GiB (88%)\n Title : The Artist\n Writing library : x264 core 120 r2164 da19765\n Encoding settings : cabac=1 / ref=4 / deblock=1:0:0 / analyse=0x3:0x133 / me=umh / subme=9 / psy=1 / psy_rd=1.00:0.00 / mixed_ref=1 / me_range=32 / chroma_me=1 / trellis=2 / 8x8dct=1 / cqm=0 / deadzone=21,11 / fast_pskip=1 / chroma_qp_offset=-2 / threads=9 / sliced_threads=0 / nr=0 / decimate=1 / interlaced=0 / bluray_compat=0 / constrained_intra=0 / bframes=3 / b_pyramid=2 / b_adapt=2 / b_bias=0 / direct=3 / weightb=1 / open_gop=0 / weightp=2 / keyint=240 / keyint_min=23 / scenecut=40 / intra_refresh=0 / rc_lookahead=60 / rc=2pass / mbtree=1 / bitrate=3299 / ratetol=1.0 / qcomp=0.60 / qpmin=10 / qpmax=51 / qpstep=4 / cplxblur=20.0 / qblur=0.5 / ip_ratio=1.40 / aq=1:1.00\n Language : Spanish\n Default : Yes\n Forced : No\n Audio\n ID : 2\n Format : AC-3\n Format/Info : Audio Coding 3\n Mode extension : CM (complete main)\n Codec ID : A_AC3\n Duration : 1h 40mn\n Bit rate mode : Constant\n Bit rate : 384 Kbps\n Channel(s) : 6 channels\n Channel positions : Front: L C R, Side: L R, LFE\n Sampling rate : 48.0 KHz\n Bit depth : 16 bits\n Compression mode : Lossy\n Stream size : 276 MiB (10%)\n Title : Banda sonora\n Language : Spanish\n Default : Yes\n Forced : No\n Text #1\n ID : 3\n Format : UTF-8\n Codec ID : S_TEXT/UTF8\n Codec ID/Info : UTF-8 Plain Text\n Language : Spanish\n Default : Yes\n Forced : No\n Text #2\n ID : 4\n Format : UTF-8\n Codec ID : S_TEXT/UTF8\n Codec ID/Info : UTF-8 Plain Text\n Language : French\n Default : No\n Forced : No","torrent":{"xt":"urn:btih:676e14a2cf714a5dabe1e6c2e2724d24588613cf","amp;dn":"The+Artist+%282011%29%5BBDrip+m-1080p+x264+mkv%5D%5Bac3+%28sub+spa-fre%29%5D","amp;tr":["udp%3A%2F%2Ftracker.openbittorrent.com%3A80","udp%3A%2F%2Fopen.demonii.com%3A1337","udp%3A%2F%2Ftracker.coppersurfer.tk%3A6969","udp%3A%2F%2Fexodus.desync.com%3A6969"],"infoHash":"676e14a2cf714a5dabe1e6c2e2724d24588613cf","infoHashBuffer":{"type":"Buffer","data":[103,110,20,162,207,113,74,93,171,225,230,194,226,114,77,36,88,134,19,207]},"announce":[],"urlList":[]}}